#!OML:ASF H:\Pregnant\Project 1\Capture day 1\Session 1\femalepreg.ASF
:FULLY-SPECIFIED
:DEGREES
968
root 2.46205 16.2201 -38.7072 22.4345 2.28945 -0.0131097
lowerback -9.2411 -1.29725 -9.18095
upperback -3.14733 -0.78542 -4.13892
thorax 1.9527 -0.379002 0.751426
lowerneck -15.3199 -5.02628 -0.372158
upperneck 18.5529 -7.40437 2.6552
head 8.41591 -3.25169 0.0818222
rclavicle -2.82274e-014 -1.59028e-015
rhumerus -51.6222 -5.18348 -79.9406
rradius 30.936
rwrist -3.57692
rhand -4.47206 -15.9337
rfingers 7.12502
rthumb 21.3006 -44.7831
lclavicle -2.82274e-014 -1.59028e-015
lhumerus -34.2573 -9.85857 78.4963
lradius 44.2355
lwrist 40.1984
lhand -14.3511 -10.4764
lfingers 7.12502
lthumb 11.7905 19.1717
rfemur -45.5504 14.5219 13.0428
rtibia 61.9034
rfoot -11.3753 -8.88788
rtoes -23.1559
lfemur -36.1949 -10.3412 -22.4339
ltibia 27.7799
lfoot -11.2882 2.26731
ltoes -13.0779
969
root 2.47414 16.2205 -38.6475 22.4245 2.52024 -0.0630635
lowerback -9.13912 -1.38647 -9.15897
upperback -3.18734 -0.923933 -4.06879
thorax 1.86621 -0.443657 0.799423
lowerneck -15.3205 -5.09161 -0.382993
upperneck 18.4905 -7.49975 2.70324
head 8.39905 -3.29398 0.0889062
rclavicle 7.95139e-015 -3.18055e-015
rhumerus -51.659 -5.10787 -80.0708
rradius 31.5395
rwrist -4.00707
rhand -4.7628 -14.7192
rfingers 7.12502
rthumb 21.0213 -43.5999
lclavicle 7.95139e-015 -3.18055e-015
lhumerus -33.9186 -9.665 78.1205
lradius 43.6754
lwrist 40.3498
lhand -14.1092 -10.1635
lfingers 7.12502
lthumb 12.0238 19.4711
rfemur -46.0761 14.5509 13.0097
rtibia 61.2513
rfoot -11.7347 -9.36458
rtoes -22.8733
lfemur -35.9478 -10.4116 -22.4219
ltibia 27.7677
lfoot -11.4888 2.18714
ltoes -13.0329
970
root 2.48477 16.2177 -38.5938 22.4255 2.90312 -0.0250524
lowerback -8.90373 -1.52356 -9.18501
upperback -3.25113 -1.1405 -4.00579
thorax 1.688 -0.543133 0.861424
lowerneck -15.3365 -5.16262 -0.388328
upperneck 18.4503 -7.60485 2.74872
head 8.39234 -3.34005 0.0923621
rclavicle 9.14409e-015 8.26944e-014
rhumerus -51.6907 -5.06971 -80.1772
rradius 32.1465
rwrist -4.39835
rhand -5.20236 -14.2459
rfingers 7.12502
rthumb 20.599 -43.1729
lclavicle 9.14409e-015 8.26944e-014
lhumerus -33.58 -9.41462 77.7268
lradius 43.0555
lwrist 40.4216
lhand -13.9151 -9.92174
lfingers 7.12502
lthumb 12.211 19.7018
rfemur -46.6288 14.4395 12.948
rtibia 60.5995
rfoot -12.0759 -9.83084
rtoes -22.5995
lfemur -35.753 -10.546 -22.4574
ltibia 27.7293
lfoot -11.6404 1.97677
ltoes -12.9937
971
root 2.49407 16.2121 -38.5451 22.4329 3.41534 0.0950514
lowerback -8.56768 -1.70305 -9.25549
upperback -3.32166 -1.42291 -3.95112
thorax 1.45364 -0.672879 0.936209
lowerneck -15.3261 -5.24492 -0.416455
upperneck 18.3904 -7.72527 2.8241
head 8.37684 -3.3927 0.108507
rclavicle 1.51076e-014 4.45278e-014
rhumerus -51.683 -5.05821 -80.2658
rradius 32.7397
rwrist -4.74823
rhand -5.77006 -14.5279
rfingers 7.12502
rthumb 20.0534 -43.513
lclavicle 1.51076e-014 4.45278e-014
lhumerus -33.2126 -9.09937 77.3118
lradius 42.372
lwrist 40.4143
lhand -13.7872 -9.75648
lfingers 7.12502
lthumb 12.3343 19.8597
rfemur -47.1937 14.2209 12.8531
rtibia 59.9427
rfoot -12.3909 -10.3309
rtoes -22.417
lfemur -35.5919 -10.7359 -22.5398
ltibia 27.6619
lfoot -11.75 1.65329
ltoes -12.9548
972
root 2.50219 16.2046 -38.499 22.4499 3.99892 0.267205
lowerback -8.16981 -1.90365 -9.35855
upperback -3.39947 -1.73976 -3.90223
thorax 1.18193 -0.817833 1.02378
lowerneck -15.3428 -5.32573 -0.427683
upperneck 18.3443 -7.84617 2.88875
head 8.36983 -3.44481 0.117378
rclavicle -1.15295e-014 1.59028e-014
rhumerus -51.6495 -5.07397 -80.3362
rradius 33.3268
rwrist -5.04933
rhand -6.4904 -15.4836
rfingers 7.12502
rthumb 19.3609 -44.5398
lclavicle -1.15295e-014 1.59028e-014
lhumerus -32.8127 -8.75232 76.8832
lradius 41.6155
lwrist 40.3625
lhand -13.7837 -9.68008
lfingers 7.12502
lthumb 12.3376 19.9359
rfemur -47.7629 13.9522 12.7271
rtibia 59.2433
rfoot -12.662 -10.8409
rtoes -22.2904
lfemur -35.4469 -10.9518 -22.6521
ltibia 27.5644
lfoot -11.8313 1.25815
ltoes -12.909
973
root 2.51067 16.1983 -38.4485 22.4652 4.46482 0.409909
lowerback -7.84971 -2.06242 -9.45615
upperback -3.46821 -1.99136 -3.85814
thorax 0.958136 -0.932079 1.10994
lowerneck -15.3937 -5.39991 -0.426483
upperneck 18.3172 -7.9599 2.94338
head 8.37435 -3.49272 0.120527
rclavicle 1.98785e-015 2.22639e-014
rhumerus -51.5892 -5.10985 -80.3916
rradius 33.9065
rwrist -5.29113
rhand -7.27309 -16.8502
rfingers 7.12502
rthumb 18.6082 -45.9802
lclavicle 1.98785e-015 2.22639e-014
lhumerus -32.4227 -8.32937 76.4358
lradius 40.8612
lwrist 40.2381
lhand -13.9373 -9.65155
lfingers 7.12502
lthumb 12.1895 19.9733
rfemur -48.306 13.7843 12.5766
rtibia 58.4327
rfoot -12.8678 -11.3421
rtoes -22.1719
lfemur -35.2435 -11.1259 -22.7599
ltibia 27.4364
lfoot -11.9217 0.95061
ltoes -12.8755
974
root 2.52086 16.199 -38.3864 22.4835 4.61758 0.422992
lowerback -7.76494 -2.11487 -9.50276
upperback -3.51938 -2.07373 -3.81369
thorax 0.867597 -0.967758 1.17771
lowerneck -15.423 -5.47628 -0.433413
upperneck 18.2678 -8.07701 3.01495
head 8.36875 -3.5419 0.131062
rclavicle 3.57812e-015 3.02153e-014
rhumerus -51.4952 -5.15827 -80.4354
rradius 34.4638
rwrist -5.47325
rhand -7.85177 -17.6801
rfingers 7.12502
rthumb 18.0515 -46.8624
lclavicle 3.57812e-015 3.02153e-014
lhumerus -32.0482 -7.82898 75.9679
lradius 40.1162
lwrist 40.0583
lhand -14.6098 -9.16905
lfingers 7.12502
lthumb 11.5411 20.4932
rfemur -48.8347 13.9385 12.3961
rtibia 57.4467
rfoot -13.0152 -11.8103
rtoes -21.8587
lfemur -34.9307 -11.1758 -22.8076
ltibia 27.2802
lfoot -12.0655 0.889208
ltoes -12.8647
975
root 2.53291 16.2067 -38.3127 22.5034 4.45322 0.302105
lowerback -7.91736 -2.0616 -9.49234
upperback -3.55394 -1.9875 -3.76787
thorax 0.909357 -0.925393 1.22342
lowerneck -15.473 -5.53719 -0.448497
upperneck 18.2275 -8.17459 3.10132
head 8.3707 -3.58032 0.149325
rclavicle 5.1684e-015 -2.22639e-014
rhumerus -51.3733 -5.2069 -80.4767
rradius 35.0052
rwrist -5.60105
rhand -8.13361 -17.7562
rfingers 7.12502
rthumb 17.7803 -46.9633
lclavicle 5.1684e-015 -2.22639e-014
lhumerus -31.7094 -7.25279 75.4796
lradius 39.4049
lwrist 39.8461
lhand -15.613 -8.39635
lfingers 7.12502
lthumb 10.5735 21.3177
rfemur -49.3398 14.4063 12.1956
rtibia 56.2794
rfoot -13.1169 -12.2315
rtoes -21.3823
lfemur -34.5075 -11.1012 -22.7937
ltibia 27.0934
lfoot -12.2612 1.07549
ltoes -12.8692
976
root 2.54581 16.2179 -38.232 22.5268 4.0883 0.0970113
lowerback -8.21944 -1.94084 -9.44699
upperback -3.5776 -1.79414 -3.72008
thorax 1.03476 -0.833431 1.25806
lowerneck -15.5479 -5.58996 -0.452618
upperneck 18.1995 -8.26166 3.17501
head 8.38013 -3.61359 0.161963
rclavicle -1.51076e-014 1.59028e-015
rhumerus -51.2146 -5.24882 -80.5185
rradius 35.5208
rwrist -5.68978
rhand -8.12666 -17.3219
rfingers 7.12502
rthumb 17.787 -46.5285
lclavicle -1.51076e-014 1.59028e-015
lhumerus -31.3926 -6.60497 74.9739
lradius 38.7241
lwrist 39.6266
lhand -16.9845 -7.25714
lfingers 7.12502
lthumb 9.25031 22.5199
rfemur -49.8349 15.0425 11.9909
rtibia 54.9842
rfoot -13.188 -12.5706
rtoes -20.7232
lfemur -34.0104 -10.9398 -22.7448
ltibia 26.8742
lfoot -12.4822 1.40475
ltoes -12.8869
977
root 2.55794 16.2284 -38.153 22.5606 3.76899 -0.083229
lowerback -8.47345 -1.83482 -9.41016
upperback -3.61528 -1.62759 -3.67271
thorax 1.12122 -0.752945 1.29713
lowerneck -15.6099 -5.6459 -0.468257
upperneck 18.1634 -8.35189 3.2587
head 8.38561 -3.64851 0.179797
rclavicle -3.57812e-015 3.49861e-014
rhumerus -51.0307 -5.27499 -80.5624
rradius 36.0106
rwrist -5.74766
rhand -8.07612 -16.9455
rfingers 7.12502
rthumb 17.8356 -46.1476
lclavicle -3.57812e-015 3.49861e-014
lhumerus -31.1014 -5.89906 74.4535
lradius 38.0758
lwrist 39.4281
lhand -18.5362 -5.95966
lfingers 7.12502
lthumb 7.75282 23.8782
rfemur -50.3275 15.6468 11.7746
rtibia 53.6434
rfoot -13.2314 -12.8961
rtoes -19.988
lfemur -33.5239 -10.7826 -22.7106
ltibia 26.6287
lfoot -12.6836 1.67427
ltoes -12.9032
978
root 2.56769 16.2346 -38.0821 22.6079 3.67595 -0.157527
lowerback -8.54755 -1.8085 -9.42121
upperback -3.67955 -1.58853 -3.62743
thorax 1.09254 -0.730524 1.35329
lowerneck -15.6684 -5.70083 -0.478239
upperneck 18.1346 -8.43901 3.32635
head 8.39189 -3.68311 0.191774
rclavicle -4.37326e-015 4.77083e-015
rhumerus -50.8314 -5.26106 -80.6281
rradius 36.4909
rwrist -5.80967
rhand -8.08147 -16.737
rfingers 7.12502
rthumb 17.8304 -45.9396
lclavicle -4.37326e-015 4.77083e-015
lhumerus -30.8393 -5.15169 73.9138
lradius 37.474
lwrist 39.3
lhand -20.0247 -4.81239
lfingers 7.12502
lthumb 6.31599 25.0734
rfemur -50.826 16.0554 11.5476
rtibia 52.3292
rfoot -13.2225 -13.2298
rtoes -19.1401
lfemur -33.1111 -10.6842 -22.7267
ltibia 26.3604
lfoot -12.8344 1.72164
ltoes -12.9276
979
root 2.57612 16.2372 -38.0168 22.6522 3.73764 -0.146434
lowerback -8.49915 -1.83681 -9.47462
upperback -3.74656 -1.63447 -3.58662
thorax 1.00175 -0.747567 1.42278
lowerneck -15.7112 -5.76218 -0.485294
upperneck 18.078 -8.53319 3.3904
head 8.38593 -3.72218 0.202104
rclavicle 1.66979e-014 -2.06736e-014
rhumerus -50.5852 -5.22196 -80.7079
rradius 36.9725
rwrist -5.89863
rhand -8.04103 -16.697
rfingers 7.12502
rthumb 17.8694 -45.896
lclavicle 1.66979e-014 -2.06736e-014
lhumerus -30.574 -4.35649 73.3621
lradius 36.902
lwrist 39.2469
lhand -21.2818 -4.07809
lfingers 7.12502
lthumb 5.1023 25.8405
rfemur -51.3104 16.3112 11.316
rtibia 51.0554
rfoot -13.172 -13.5257
rtoes -18.3246
lfemur -32.7292 -10.6349 -22.7921
ltibia 26.0658
lfoot -12.943 1.62159
ltoes -12.9695
980
root 2.58356 16.2381 -37.9555 22.6899 3.89703 -0.0722036
lowerback -8.35358 -1.89908 -9.563
upperback -3.81881 -1.7358 -3.55154
thorax 0.857642 -0.789584 1.50292
lowerneck -15.7182 -5.82865 -0.489508
upperneck 17.98 -8.63268 3.45561
head 8.35971 -3.76518 0.213421
rclavicle 7.95139e-016 -3.02153e-014
rhumerus -50.3094 -5.16333 -80.7966
rradius 37.4512
rwrist -5.99719
rhand -8.01338 -16.9129
rfingers 7.12502
rthumb 17.896 -46.1095
lclavicle 7.95139e-016 -3.02153e-014
lhumerus -30.3366 -3.53652 72.803
lradius 36.3746
lwrist 39.2907
lhand -22.2761 -3.80714
lfingers 7.12502
lthumb 4.14213 26.1323
rfemur -51.769 16.491 11.0677
rtibia 49.7968
rfoot -13.0522 -13.7836
rtoes -17.5286
lfemur -32.3492 -10.616 -22.897
ltibia 25.7327
lfoot -13.0167 1.4223
ltoes -13.022
981
root 2.59146 16.2389 -37.893 22.7037 4.011 0.0124995
lowerback -8.22087 -1.94744 -9.66371
upperback -3.87105 -1.81457 -3.5242
thorax 0.739834 -0.821638 1.58362
lowerneck -15.7157 -5.89347 -0.488254
upperneck 17.8462 -8.72919 3.5223
head 8.31958 -3.80741 0.225571
rclavicle 2.14687e-014 6.83819e-014
rhumerus -49.9927 -5.09026 -80.8888
rradius 37.9295
rwrist -6.09678
rhand -7.94004 -17.3523
rfingers 7.12502
rthumb 17.9665 -46.5424
lclavicle 2.14687e-014 6.83819e-014
lhumerus -30.1453 -2.67596 72.2401
lradius 35.9438
lwrist 39.4179
lhand -22.8532 -4.16052
lfingers 7.12502
lthumb 3.58486 25.7891
rfemur -52.1644 16.6817 10.8192
rtibia 48.5038
rfoot -12.835 -13.9867
rtoes -16.9494
lfemur -31.901 -10.5962 -23.0266
ltibia 25.3565
lfoot -13.0776 1.26182
ltoes -13.0807
982
root 2.60025 16.2433 -37.8243 22.6922 3.96149 0.0447783
lowerback -8.18888 -1.9433 -9.74475
upperback -3.9035 -1.81047 -3.50189
thorax 0.689949 -0.815751 1.65315
lowerneck -15.7292 -5.94973 -0.458255
upperneck 17.7077 -8.81511 3.56339
head 8.27803 -3.84528 0.22566
rclavicle 1.03368e-014 5.24792e-014
rhumerus -49.6519 -5.00335 -80.9848
rradius 38.3964
rwrist -6.1781
rhand -7.7839 -17.716
rfingers 7.12502
rthumb 18.1168 -46.8923
lclavicle 1.03368e-014 5.24792e-014
lhumerus -30.0217 -1.78795 71.6681
lradius 35.6068
lwrist 39.6292
lhand -23.4012 -4.51576
lfingers 7.12502
lthumb 3.05569 25.4421
rfemur -52.5065 17.0148 10.5665
rtibia 47.1432
rfoot -12.5282 -14.1244
rtoes -16.4701
lfemur -31.3437 -10.5283 -23.1471
ltibia 24.9341
lfoot -13.1507 1.23931
ltoes -13.1319
